<svg width="20" height="18" viewBox="0 0 20 18" fill="none" xmlns="http://www.w3.org/2000/svg">
<path d="M11.125 10.125V6C11.125 5.46 10.99 4.96 10.72 4.5C10.45 4.04 10.085 3.675 9.625 3.405C9.165 3.135 8.665 3 8.125 3C7.585 3 7.085 3.135 6.625 3.405C6.165 3.675 5.8 4.04 5.53 4.5C5.26 4.96 5.125 5.46 5.125 6V10.125C5.125 11.005 5.345 11.825 5.785 12.585C6.215 13.325 6.8 13.91 7.54 14.34C8.3 14.78 9.12 15 10 15C10.88 15 11.7 14.78 12.46 14.34C13.2 13.91 13.785 13.325 14.215 12.585C14.655 11.825 14.875 11.005 14.875 10.125V3H16.375V10.125C16.375 11.275 16.085 12.35 15.505 13.35C14.945 14.31 14.185 15.07 13.225 15.63C12.225 16.21 11.15 16.5 10 16.5C8.85 16.5 7.775 16.21 6.775 15.63C5.815 15.07 5.055 14.31 4.495 13.35C3.915 12.35 3.625 11.275 3.625 10.125V6C3.625 5.19 3.83 4.435 4.24 3.735C4.64 3.055 5.18 2.515 5.86 2.115C6.56 1.705 7.315 1.5 8.125 1.5C8.935 1.5 9.69 1.705 10.39 2.115C11.07 2.515 11.61 3.055 12.01 3.735C12.42 4.435 12.625 5.19 12.625 6V10.125C12.625 10.605 12.5075 11.045 12.2725 11.445C12.0375 11.845 11.72 12.1625 11.32 12.3975C10.92 12.6325 10.48 12.75 10 12.75C9.52 12.75 9.08 12.6325 8.68 12.3975C8.28 12.1625 7.9625 11.845 7.7275 11.445C7.4925 11.045 7.375 10.605 7.375 10.125V6H8.875V10.125C8.875 10.435 8.985 10.7 9.205 10.92C9.425 11.14 9.69 11.25 10 11.25C10.31 11.25 10.575 11.14 10.795 10.92C11.015 10.7 11.125 10.435 11.125 10.125Z" fill="#71767B"/>
</svg>
