<svg width="11" height="12" viewBox="0 0 11 12" fill="none" xmlns="http://www.w3.org/2000/svg">
<path d="M0.173828 9.79134V1.91634C0.173828 1.59745 0.251578 1.30384 0.407078 1.03551C0.562578 0.767175 0.774447 0.55523 1.04268 0.399674C1.31092 0.244119 1.60443 0.166341 1.9232 0.166341H10.087C10.2502 0.166341 10.3882 0.22273 10.501 0.335507C10.6137 0.448285 10.6701 0.586341 10.6701 0.749675V11.2497C10.6701 11.413 10.6137 11.5511 10.501 11.6638C10.3882 11.7766 10.2502 11.833 10.087 11.833H2.21477C1.84157 11.833 1.49947 11.7416 1.18847 11.5588C0.877466 11.3761 0.630609 11.1291 0.447897 10.818C0.265184 10.5069 0.173828 10.1647 0.173828 9.79134ZM9.50383 10.6663V8.91634H2.21477C1.97374 8.91634 1.7677 9.0019 1.59665 9.17301C1.4256 9.34412 1.34008 9.55023 1.34008 9.79134C1.34008 10.0325 1.4256 10.2386 1.59665 10.4097C1.7677 10.5808 1.97374 10.6663 2.21477 10.6663H9.50383ZM1.34008 7.94801C1.6122 7.81579 1.90377 7.74967 2.21477 7.74967H9.50383V1.33301H1.9232C1.75993 1.33301 1.62192 1.3894 1.50918 1.50217C1.39645 1.61495 1.34008 1.75301 1.34008 1.91634V7.94801Z" fill="#71767B"/>
</svg>
