<svg width="20" height="18" viewBox="0 0 20 18" fill="none" xmlns="http://www.w3.org/2000/svg">
<path d="M6.71 15.174L3 16L3.826 12.29C3.27533 11.2727 3 10.176 3 9C3 8.048 3.182 7.138 3.546 6.27C3.90067 5.43933 4.40233 4.69967 5.051 4.051C5.69967 3.40233 6.43933 2.90067 7.27 2.546C8.138 2.182 9.048 2 10 2C10.952 2 11.862 2.182 12.73 2.546C13.5607 2.90067 14.3003 3.40233 14.949 4.051C15.5977 4.69967 16.0993 5.43933 16.454 6.27C16.818 7.138 17 8.048 17 9C17 9.952 16.818 10.862 16.454 11.73C16.0993 12.5607 15.5977 13.3003 14.949 13.949C14.3003 14.5977 13.5607 15.0993 12.73 15.454C11.862 15.818 10.952 16 10 16C8.824 16 7.72733 15.7247 6.71 15.174ZM6.906 13.704L7.368 13.942C8.18933 14.3807 9.06666 14.6 10 14.6C11.0173 14.6 11.96 14.3433 12.828 13.83C13.668 13.3353 14.3353 12.668 14.83 11.828C15.3433 10.96 15.6 10.0173 15.6 9C15.6 7.98267 15.3433 7.04 14.83 6.172C14.3353 5.332 13.668 4.66467 12.828 4.17C11.96 3.65667 11.0173 3.4 10 3.4C8.98266 3.4 8.04 3.65667 7.172 4.17C6.332 4.66467 5.66467 5.332 5.17 6.172C4.65667 7.04 4.4 7.98267 4.4 9C4.4 9.93333 4.61933 10.8107 5.058 11.632L5.296 12.094L4.848 14.152L6.906 13.704Z" fill="#71767B"/>
</svg>
