<svg width="16" height="16" viewBox="0 0 16 16" fill="none" xmlns="http://www.w3.org/2000/svg">
<path d="M4.46719 14.615L0.492188 15.5L1.37719 11.525C0.787188 10.435 0.492188 9.26 0.492188 8C0.492188 6.98 0.687187 6.005 1.07719 5.075C1.45719 4.185 1.99469 3.3925 2.68969 2.6975C3.38469 2.0025 4.17719 1.465 5.06719 1.085C5.99719 0.695001 6.97219 0.5 7.99219 0.5C9.01219 0.5 9.98719 0.695001 10.9172 1.085C11.8072 1.465 12.5997 2.0025 13.2947 2.6975C13.9897 3.3925 14.5272 4.185 14.9072 5.075C15.2972 6.005 15.4922 6.98 15.4922 8C15.4922 9.02 15.2972 9.995 14.9072 10.925C14.5272 11.815 13.9897 12.6075 13.2947 13.3025C12.5997 13.9975 11.8072 14.535 10.9172 14.915C9.98719 15.305 9.01219 15.5 7.99219 15.5C6.73219 15.5 5.55719 15.205 4.46719 14.615ZM4.67719 13.04L5.17219 13.295C6.05219 13.765 6.99219 14 7.99219 14C9.08219 14 10.0922 13.725 11.0222 13.175C11.9222 12.645 12.6372 11.93 13.1672 11.03C13.7172 10.1 13.9922 9.09 13.9922 8C13.9922 6.91 13.7172 5.9 13.1672 4.97C12.6372 4.07 11.9222 3.355 11.0222 2.825C10.0922 2.275 9.08219 2 7.99219 2C6.90219 2 5.89219 2.275 4.96219 2.825C4.06219 3.355 3.34719 4.07 2.81719 4.97C2.26719 5.9 1.99219 6.91 1.99219 8C1.99219 9 2.22719 9.94 2.69719 10.82L2.95219 11.315L2.47219 13.52L4.67719 13.04Z" fill="#71767B"/>
</svg>
