<svg width="12" height="12" viewBox="0 0 12 12" fill="none" xmlns="http://www.w3.org/2000/svg">
<path d="M1.22582 1.91667V10.0833H10.5558V3.08333H5.64591L4.47966 1.91667H1.22582ZM6.13573 1.91667H11.1389C11.3022 1.91667 11.4402 1.97306 11.553 2.08583C11.6657 2.19861 11.7221 2.33667 11.7221 2.5V10.6667C11.7221 10.83 11.6657 10.9681 11.553 11.0808C11.4402 11.1936 11.3022 11.25 11.1389 11.25H0.642695C0.47942 11.25 0.341414 11.1936 0.228677 11.0808C0.115939 10.9681 0.0595703 10.83 0.0595703 10.6667V1.33333C0.0595703 1.17 0.115939 1.03194 0.228677 0.919167C0.341414 0.806389 0.47942 0.75 0.642695 0.75H4.96948L6.13573 1.91667Z" fill="#38E07A"/>
</svg>
