<svg width="21" height="20" viewBox="0 0 21 20" fill="none" xmlns="http://www.w3.org/2000/svg">
<path d="M10.5 1.86657C9.3669 1.86657 8.28384 2.08879 7.25076 2.53324C6.26212 2.95546 5.38179 3.54991 4.60976 4.31657C3.83773 5.08324 3.24066 5.96657 2.81854 6.96657C2.38531 7.99991 2.1687 9.07768 2.1687 10.1999C2.1687 11.411 2.41308 12.561 2.90185 13.6499C3.37951 14.7055 4.05156 15.6221 4.91801 16.3999C5.78446 17.1777 6.76755 17.7499 7.86728 18.1166C8.05612 18.1499 8.19775 18.1221 8.29217 18.0332C8.38659 17.9444 8.4338 17.8388 8.4338 17.7166V16.1666C7.51181 16.3332 6.80088 16.2777 6.301 15.9999C5.97886 15.811 5.75114 15.5388 5.61784 15.1832C5.5623 15.0166 5.45677 14.8166 5.30125 14.5832C5.1013 14.2832 4.92357 14.0888 4.76805 13.9999C4.5681 13.8999 4.44591 13.7944 4.40148 13.6832C4.33483 13.5388 4.44869 13.4638 4.74306 13.4582C5.03743 13.4527 5.31791 13.561 5.58451 13.7832C5.76225 13.9277 5.91221 14.1055 6.0344 14.3166C6.36765 14.861 6.80643 15.1555 7.35074 15.1999C7.71731 15.2332 8.08944 15.1666 8.46713 14.9999C8.53378 14.4999 8.71151 14.1277 9.00033 13.8832C8.27829 13.8055 7.67843 13.6555 7.20078 13.4332C6.57871 13.1555 6.10661 12.7444 5.78446 12.1999C5.39567 11.5777 5.20128 10.7666 5.20128 9.76657C5.20128 8.89991 5.49009 8.15546 6.06773 7.53324C5.97886 7.31102 5.92332 7.06102 5.9011 6.78324C5.86778 6.29435 5.95109 5.80546 6.15104 5.31657L6.28434 5.29991C6.40653 5.29991 6.54538 5.31657 6.7009 5.34991C6.91196 5.39435 7.14523 5.47213 7.40073 5.58324C7.72287 5.72768 8.06723 5.92213 8.4338 6.16657C9.1003 5.9888 9.79457 5.89991 10.5166 5.89991C11.2387 5.89991 11.9329 5.9888 12.5994 6.16657C13.2659 5.72213 13.8491 5.44435 14.349 5.33324C14.5934 5.2888 14.7767 5.28324 14.8989 5.31657C15.0877 5.80546 15.1655 6.29435 15.1321 6.78324C15.121 7.06102 15.071 7.31102 14.9822 7.53324C15.5487 8.15546 15.832 8.89991 15.832 9.76657C15.832 10.7666 15.6431 11.5832 15.2654 12.2166C14.9322 12.7499 14.4545 13.1555 13.8325 13.4332C13.3548 13.6555 12.7549 13.8055 12.0329 13.8832C12.1995 14.0277 12.3328 14.2166 12.4328 14.4499C12.5439 14.7277 12.5994 15.0499 12.5994 15.4166L12.5828 17.7166C12.5828 17.8499 12.63 17.9582 12.7244 18.0416C12.8188 18.1249 12.9604 18.1499 13.1493 18.1166C14.2712 17.7388 15.2626 17.1555 16.1235 16.3666C16.9844 15.5777 17.6509 14.6499 18.123 13.5832C18.5951 12.5166 18.8312 11.3888 18.8312 10.1999C18.8312 9.07768 18.6146 7.99991 18.1814 6.96657C17.7592 5.96657 17.1622 5.08324 16.3901 4.31657C15.6181 3.54991 14.7378 2.95546 13.7491 2.53324C12.7161 2.08879 11.633 1.86657 10.5 1.86657Z" fill="black"/>
</svg>
