<svg width="20" height="18" viewBox="0 0 20 18" fill="none" xmlns="http://www.w3.org/2000/svg">
<path d="M9.73449 3.20969C10.3145 2.68969 10.9795 2.34719 11.7295 2.18219C12.4795 2.01719 13.2195 2.03469 13.9495 2.23469C14.7095 2.44469 15.367 2.82719 15.922 3.38219C16.477 3.93719 16.8595 4.59469 17.0695 5.35469C17.2695 6.08469 17.287 6.82219 17.122 7.56719C16.957 8.31219 16.6145 8.97969 16.0945 9.56969L9.73449 15.9297L3.37449 9.56969C2.85449 8.97969 2.51199 8.31219 2.34699 7.56719C2.18199 6.82219 2.19949 6.08469 2.39949 5.35469C2.60949 4.59469 2.99449 3.93719 3.55449 3.38219C4.11449 2.82719 4.76949 2.44469 5.51949 2.23469C6.24949 2.03469 6.98949 2.01719 7.73949 2.18219C8.48949 2.34719 9.15449 2.68969 9.73449 3.20969ZM14.8495 4.43969C14.4795 4.06969 14.0495 3.81719 13.5595 3.68219C13.0695 3.54719 12.5745 3.53469 12.0745 3.64469C11.5745 3.75469 11.1295 3.98469 10.7395 4.33469L9.73449 5.23469L8.72949 4.33469C8.34949 3.98469 7.90699 3.75469 7.40199 3.64469C6.89699 3.53469 6.39949 3.54719 5.90949 3.68219C5.41949 3.81719 4.98949 4.06969 4.61949 4.43969C4.24949 4.80969 3.99449 5.23969 3.85449 5.72969C3.71449 6.21969 3.69699 6.71219 3.80199 7.20719C3.90699 7.70219 4.12949 8.14469 4.46949 8.53469L9.73449 13.8147L14.9995 8.53469C15.3395 8.14469 15.562 7.70219 15.667 7.20719C15.772 6.71219 15.7545 6.21969 15.6145 5.72969C15.4745 5.23969 15.2195 4.80969 14.8495 4.43969Z" fill="#71767B"/>
</svg>
