<svg width="16" height="14" viewBox="0 0 16 14" fill="none" xmlns="http://www.w3.org/2000/svg">
<path d="M7.99987 1.20969C8.57987 0.689688 9.24487 0.347188 9.99487 0.182188C10.7449 0.0171881 11.4849 0.034688 12.2149 0.234688C12.9749 0.444688 13.6324 0.827188 14.1874 1.38219C14.7424 1.93719 15.1249 2.59469 15.3349 3.35469C15.5349 4.08469 15.5524 4.82219 15.3874 5.56719C15.2224 6.31219 14.8799 6.97969 14.3599 7.56969L7.99987 13.9297L1.63987 7.56969C1.11987 6.97969 0.777372 6.31219 0.612372 5.56719C0.447372 4.82219 0.464872 4.08469 0.664872 3.35469C0.874872 2.59469 1.25987 1.93719 1.81987 1.38219C2.37987 0.827188 3.03487 0.444688 3.78487 0.234688C4.51487 0.034688 5.25487 0.0171881 6.00487 0.182188C6.75487 0.347188 7.41987 0.689688 7.99987 1.20969ZM13.1149 2.43969C12.7449 2.06969 12.3149 1.81719 11.8249 1.68219C11.3349 1.54719 10.8399 1.53469 10.3399 1.64469C9.83987 1.75469 9.39487 1.98469 9.00487 2.33469L7.99987 3.23469L6.99487 2.33469C6.61487 1.98469 6.17237 1.75469 5.66737 1.64469C5.16237 1.53469 4.66487 1.54719 4.17487 1.68219C3.68487 1.81719 3.25487 2.06969 2.88487 2.43969C2.51487 2.80969 2.25987 3.23969 2.11987 3.72969C1.97987 4.21969 1.96237 4.71219 2.06737 5.20719C2.17237 5.70219 2.39487 6.14469 2.73487 6.53469L7.99987 11.8147L13.2649 6.53469C13.6049 6.14469 13.8274 5.70219 13.9324 5.20719C14.0374 4.71219 14.0199 4.21969 13.8799 3.72969C13.7399 3.23969 13.4849 2.80969 13.1149 2.43969Z" fill="#71767B"/>
</svg>
