<svg width="13" height="12" viewBox="0 0 13 12" fill="none" xmlns="http://www.w3.org/2000/svg">
<path d="M1.04895 11.25C0.88567 11.25 0.747664 11.1936 0.634927 11.0808C0.522189 10.9681 0.46582 10.83 0.46582 10.6667V1.33333C0.46582 1.17 0.522189 1.03194 0.634927 0.919167C0.747664 0.806389 0.88567 0.75 1.04895 0.75H11.5452C11.7085 0.75 11.8465 0.806389 11.9592 0.919167C12.072 1.03194 12.1283 1.17 12.1283 1.33333V10.6667C12.1283 10.83 12.072 10.9681 11.9592 11.0808C11.8465 11.1936 11.7085 11.25 11.5452 11.25H1.04895ZM10.9621 7.75V1.91667H1.63207V10.0833L7.46332 4.25L10.9621 7.75ZM10.9621 9.395L7.46332 5.895L3.27648 10.0833H10.9621V9.395ZM3.96457 5.41667C3.75465 5.41667 3.56027 5.36417 3.38145 5.25917C3.20262 5.15417 3.06073 5.01222 2.95576 4.83333C2.8508 4.65444 2.79832 4.46 2.79832 4.25C2.79832 4.04 2.8508 3.84556 2.95576 3.66667C3.06073 3.48778 3.20262 3.34583 3.38145 3.24083C3.56027 3.13583 3.75465 3.08333 3.96457 3.08333C4.1745 3.08333 4.36887 3.13583 4.5477 3.24083C4.72652 3.34583 4.86841 3.48778 4.97338 3.66667C5.07834 3.84556 5.13082 4.04 5.13082 4.25C5.13082 4.46 5.07834 4.65444 4.97338 4.83333C4.86841 5.01222 4.72652 5.15417 4.5477 5.25917C4.36887 5.36417 4.1745 5.41667 3.96457 5.41667Z" fill="#38E07A"/>
</svg>
