<svg width="14" height="12" viewBox="0 0 14 12" fill="none" xmlns="http://www.w3.org/2000/svg">
<path d="M3.01021 0C3.77418 0 4.48929 0.173333 5.15554 0.52C5.80402 0.857778 6.34813 1.32667 6.78785 1.92667C7.22758 2.52667 7.50518 3.19556 7.62067 3.93333C8.02041 3.53333 8.47791 3.22222 8.99314 3C9.52614 2.77778 10.0858 2.66667 10.6721 2.66667H13.6702V4.33333C13.6702 5.11556 13.4748 5.84444 13.0839 6.52C12.7019 7.17778 12.1823 7.69778 11.5249 8.08C10.8498 8.47111 10.1213 8.66667 9.33959 8.66667H7.67396V12H6.34146V6.66667H5.00897C4.16505 6.66667 3.37887 6.45333 2.65044 6.02667C1.94866 5.61778 1.39345 5.06222 0.984815 4.36C0.558415 3.63111 0.345215 2.84444 0.345215 2V0H3.01021ZM12.3377 4H10.6721C10.1302 4 9.63052 4.13556 9.17303 4.40667C8.71554 4.67778 8.35132 5.04222 8.08038 5.5C7.80944 5.95778 7.67396 6.45778 7.67396 7V7.33333H9.33959C9.88147 7.33333 10.3812 7.19778 10.8387 6.92667C11.2961 6.65556 11.6604 6.29111 11.9313 5.83333C12.2022 5.37556 12.3377 4.87556 12.3377 4.33333V4ZM3.01021 1.33333H1.67771V2C1.67771 2.60444 1.82651 3.16222 2.1241 3.67333C2.42169 4.18444 2.82589 4.58889 3.33668 4.88667C3.84747 5.18444 4.4049 5.33333 5.00897 5.33333H6.34146V4.66667C6.34146 4.06222 6.19267 3.50444 5.89508 2.99333C5.59749 2.48222 5.19329 2.07778 4.6825 1.78C4.17171 1.48222 3.61428 1.33333 3.01021 1.33333Z" fill="#4ADE80"/>
</svg>
