<svg width="16" height="12" viewBox="0 0 16 12" fill="none" xmlns="http://www.w3.org/2000/svg">
<path d="M8.65857 9.29333V10.6667H11.9898V12H3.99482V10.6667H7.32607V9.29333C6.45551 9.18667 5.66489 8.88444 4.95422 8.38667C4.24356 7.88889 3.68835 7.26222 3.2886 6.50667C2.87108 5.72444 2.66232 4.88889 2.66232 4V0H13.3223V4C13.3223 4.88889 13.1136 5.72444 12.696 6.50667C12.2963 7.26222 11.7411 7.88889 11.0304 8.38667C10.3198 8.88444 9.52914 9.18667 8.65857 9.29333ZM3.99482 1.33333V4C3.99482 4.72 4.17693 5.39111 4.54115 6.01333C4.89648 6.61778 5.37618 7.09778 5.98025 7.45333C6.60208 7.81778 7.27277 8 7.99232 8C8.71187 8 9.38257 7.81778 10.0044 7.45333C10.6085 7.09778 11.0882 6.61778 11.4435 6.01333C11.8077 5.39111 11.9898 4.72 11.9898 4V1.33333H3.99482ZM0.663574 1.33333H1.99607V4H0.663574V1.33333ZM13.9886 1.33333H15.3211V4H13.9886V1.33333Z" fill="#FACC15"/>
</svg>
