<svg width="18" height="16" viewBox="0 0 18 16" fill="none" xmlns="http://www.w3.org/2000/svg">
<path d="M1.49426 0.499999H16.4905C16.7238 0.499999 16.921 0.580555 17.082 0.741666C17.2431 0.902777 17.3236 1.1 17.3236 1.33333V14.6667C17.3236 14.9 17.2431 15.0972 17.082 15.2583C16.921 15.4194 16.7238 15.5 16.4905 15.5H1.49426C1.26098 15.5 1.06381 15.4194 0.902739 15.2583C0.741668 15.0972 0.661133 14.9 0.661133 14.6667V1.33333C0.661133 1.1 0.741668 0.902777 0.902739 0.741666C1.06381 0.580555 1.26098 0.499999 1.49426 0.499999ZM15.6574 4.03333L9.05903 9.95L2.32738 4.01667V13.8333H15.6574V4.03333ZM2.76061 2.16667L9.04237 7.71667L15.2408 2.16667H2.76061Z" fill="#E7E9EA"/>
</svg>
