<svg width="14" height="14" viewBox="0 0 14 14" fill="none" xmlns="http://www.w3.org/2000/svg">
<path d="M3.3276 0.332683C4.20705 0.332683 5.01987 0.563794 5.76607 1.02602C6.49451 1.47046 7.0586 2.07046 7.45835 2.82602C7.8581 2.26602 8.36001 1.82157 8.96407 1.49268C9.59479 1.16379 10.2699 0.99935 10.9895 0.99935H13.3213V2.66602C13.3213 3.44824 13.1259 4.17713 12.735 4.85268C12.3531 5.51046 11.8334 6.03046 11.176 6.41268C10.5009 6.80379 9.77246 6.99935 8.99072 6.99935H7.99135V7.66602H11.3226V12.3327C11.3226 12.5727 11.2626 12.7949 11.1427 12.9993C11.0228 13.2038 10.8607 13.366 10.6563 13.486C10.452 13.606 10.2299 13.666 9.9901 13.666H4.6601C4.42025 13.666 4.19816 13.606 3.99385 13.486C3.78953 13.366 3.62741 13.2038 3.50748 12.9993C3.38756 12.7949 3.3276 12.5727 3.3276 12.3327V7.66602H6.65885V6.33268H5.32635C4.48243 6.33268 3.69626 6.11935 2.96782 5.69268C2.26604 5.28379 1.71083 4.72824 1.3022 4.02602C0.875798 3.29713 0.662598 2.51046 0.662598 1.66602V0.332683H3.3276ZM9.9901 8.99935H4.6601V12.3327H9.9901V8.99935ZM11.9888 2.33268H10.9895C10.4476 2.33268 9.9479 2.46824 9.49041 2.73935C9.03292 3.01046 8.6687 3.3749 8.39776 3.83268C8.12682 4.29046 7.99135 4.79046 7.99135 5.33268V5.66602H8.99072C9.53261 5.66602 10.0323 5.53046 10.4898 5.25935C10.9473 4.98824 11.3115 4.62379 11.5824 4.16602C11.8534 3.70824 11.9888 3.20824 11.9888 2.66602V2.33268ZM3.3276 1.66602H1.9951C1.9951 2.27046 2.14389 2.82824 2.44149 3.33935C2.73908 3.85046 3.14327 4.2549 3.65406 4.55268C4.16485 4.85046 4.72228 4.99935 5.32635 4.99935H6.65885C6.65885 4.39491 6.51005 3.83713 6.21246 3.32602C5.91487 2.81491 5.51068 2.41046 4.99989 2.11268C4.48909 1.81491 3.93166 1.66602 3.3276 1.66602Z" fill="#60A5FA"/>
</svg>
