<svg width="13" height="2" viewBox="0 0 13 2" fill="none" xmlns="http://www.w3.org/2000/svg">
<path d="M1.11266 0C0.837273 0 0.601865 0.0977777 0.406431 0.293333C0.210998 0.488889 0.113281 0.724444 0.113281 1C0.113281 1.27556 0.210998 1.51111 0.406431 1.70667C0.601865 1.90222 0.837273 2 1.11266 2C1.38804 2 1.62345 1.90222 1.81888 1.70667C2.01431 1.51111 2.11203 1.27556 2.11203 1C2.11203 0.724444 2.01431 0.488889 1.81888 0.293333C1.62345 0.0977777 1.38804 0 1.11266 0ZM11.1064 0C10.831 0 10.5956 0.0977777 10.4002 0.293333C10.2047 0.488889 10.107 0.724444 10.107 1C10.107 1.27556 10.2047 1.51111 10.4002 1.70667C10.5956 1.90222 10.831 2 11.1064 2C11.3818 2 11.6172 1.90222 11.8126 1.70667C12.0081 1.51111 12.1058 1.27556 12.1058 1C12.1058 0.724444 12.0081 0.488889 11.8126 0.293333C11.6172 0.0977777 11.3818 0 11.1064 0ZM6.10953 0C5.83415 0 5.59874 0.0977777 5.40331 0.293333C5.20787 0.488889 5.11016 0.724444 5.11016 1C5.11016 1.27556 5.20787 1.51111 5.40331 1.70667C5.59874 1.90222 5.83415 2 6.10953 2C6.38491 2 6.62032 1.90222 6.81576 1.70667C7.01119 1.51111 7.10891 1.27556 7.10891 1C7.10891 0.724444 7.01119 0.488889 6.81576 0.293333C6.62032 0.0977777 6.38491 0 6.10953 0Z" fill="#E7E9EA"/>
</svg>
