<svg width="18" height="18" viewBox="0 0 18 18" fill="none" xmlns="http://www.w3.org/2000/svg">
<path d="M15.6574 12.75H17.3236V14.4167H0.661133V12.75H2.32738V6.91667C2.32738 5.70555 2.63286 4.58333 3.24382 3.55C3.83256 2.55 4.62681 1.75556 5.62656 1.16667C6.65963 0.555555 7.78157 0.25 8.99238 0.25C10.2032 0.25 11.3251 0.555555 12.3582 1.16667C13.358 1.75556 14.1522 2.55 14.7409 3.55C15.3519 4.58333 15.6574 5.70555 15.6574 6.91667V12.75ZM13.9911 12.75V6.91667C13.9911 6.01667 13.7634 5.17778 13.308 4.4C12.8636 3.64444 12.2638 3.04444 11.5084 2.6C10.7308 2.14444 9.89216 1.91667 8.99238 1.91667C8.09261 1.91667 7.25393 2.14444 6.47635 2.6C5.72098 3.04444 5.12113 3.64444 4.6768 4.4C4.22135 5.17778 3.99363 6.01667 3.99363 6.91667V12.75H13.9911ZM6.49301 16.0833H11.4918V17.75H6.49301V16.0833Z" fill="#E7E9EA"/>
</svg>
