<svg width="30" height="30" viewBox="0 0 30 30" fill="none" xmlns="http://www.w3.org/2000/svg">
<path d="M25 10.2V25.8C25 26.136 24.8926 26.42 24.6778 26.652C24.463 26.884 24.2 27 23.8889 27H6.11111C5.8 27 5.53704 26.884 5.32222 26.652C5.10741 26.42 5 26.136 5 25.8V4.2C5 3.864 5.10741 3.58 5.32222 3.348C5.53704 3.116 5.8 3 6.11111 3H18.3333L25 10.2ZM22.7778 11.4H17.2222V5.4H7.22222V24.6H22.7778V11.4ZM10.5556 9H13.8889V11.4H10.5556V9ZM10.5556 13.8H19.4444V16.2H10.5556V13.8ZM10.5556 18.6H19.4444V21H10.5556V18.6Z" fill="#71767B"/>
</svg>
