<svg width="16" height="16" viewBox="0 0 16 16" fill="none" xmlns="http://www.w3.org/2000/svg">
<path d="M8 15.5C6.98 15.5 6.005 15.305 5.075 14.915C4.185 14.535 3.3925 13.9975 2.6975 13.3025C2.0025 12.6075 1.465 11.815 1.085 10.925C0.695 9.995 0.5 9.02 0.5 8C0.5 6.98 0.695 6.005 1.085 5.075C1.465 4.185 2.0025 3.3925 2.6975 2.6975C3.3925 2.0025 4.185 1.465 5.075 1.085C6.005 0.695001 6.98 0.5 8 0.5C9.02 0.5 9.995 0.695001 10.925 1.085C11.815 1.465 12.6075 2.0025 13.3025 2.6975C13.9975 3.3925 14.535 4.185 14.915 5.075C15.305 6.005 15.5 6.98 15.5 8C15.5 9.02 15.305 9.995 14.915 10.925C14.535 11.815 13.9975 12.6075 13.3025 13.3025C12.6075 13.9975 11.815 14.535 10.925 14.915C9.995 15.305 9.02 15.5 8 15.5ZM8 14C9.09 14 10.1 13.725 11.03 13.175C11.93 12.645 12.645 11.93 13.175 11.03C13.725 10.1 14 9.09 14 8C14 6.91 13.725 5.9 13.175 4.97C12.645 4.07 11.93 3.355 11.03 2.825C10.1 2.275 9.09 2 8 2C6.91 2 5.9 2.275 4.97 2.825C4.07 3.355 3.355 4.07 2.825 4.97C2.275 5.9 2 6.91 2 8C2 9.09 2.275 10.1 2.825 11.03C3.355 11.93 4.07 12.645 4.97 13.175C5.9 13.725 6.91 14 8 14ZM7.25 10.25H8.75V11.75H7.25V10.25ZM8.75 9.02V9.5H7.25V8.375C7.25 8.165 7.3225 7.9875 7.4675 7.8425C7.6125 7.6975 7.79 7.625 8 7.625C8.31 7.625 8.575 7.515 8.795 7.295C9.015 7.075 9.125 6.81 9.125 6.5C9.125 6.19 9.015 5.925 8.795 5.705C8.575 5.485 8.31 5.375 8 5.375C7.73 5.375 7.4925 5.46 7.2875 5.63C7.0825 5.8 6.95 6.015 6.89 6.275L5.42 5.99C5.5 5.59 5.665 5.23 5.915 4.91C6.165 4.59 6.47 4.3375 6.83 4.1525C7.19 3.9675 7.58 3.875 8 3.875C8.48 3.875 8.92 3.9925 9.32 4.2275C9.72 4.4625 10.0375 4.78 10.2725 5.18C10.5075 5.58 10.625 6.02 10.625 6.5C10.625 7.09 10.45 7.615 10.1 8.075C9.75 8.535 9.3 8.85 8.75 9.02Z" fill="#E7E9EA"/>
</svg>
