<svg width="18" height="18" viewBox="0 0 18 18" fill="none" xmlns="http://www.w3.org/2000/svg">
<path d="M13.8907 12.7168L17.4564 16.2835L16.2734 17.4668L12.7076 13.9001C12.0522 14.4224 11.3358 14.8224 10.5582 15.1001C9.73615 15.389 8.89192 15.5335 8.02547 15.5335C6.67025 15.5335 5.40946 15.1946 4.24308 14.5168C3.11003 13.8501 2.21581 12.9501 1.56042 11.8168C0.871702 10.6501 0.527344 9.38902 0.527344 8.03346C0.527344 6.67791 0.871702 5.4168 1.56042 4.25013C2.21581 3.1168 3.11003 2.22235 4.24308 1.5668C5.40946 0.877909 6.67025 0.533464 8.02547 0.533464C9.38069 0.533464 10.6415 0.877909 11.8079 1.5668C12.9409 2.22235 13.8407 3.1168 14.5072 4.25013C15.1848 5.4168 15.5236 6.67791 15.5236 8.03346C15.5236 8.90013 15.3792 9.74458 15.0904 10.5668C14.8127 11.3446 14.4128 12.0612 13.8907 12.7168ZM12.2078 12.1001C12.7298 11.5668 13.1353 10.9557 13.4241 10.2668C13.7129 9.55569 13.8573 8.81124 13.8573 8.03346C13.8573 6.97791 13.5907 5.99458 13.0575 5.08346C12.5466 4.20569 11.8523 3.51124 10.9747 3.00013C10.0638 2.4668 9.08076 2.20013 8.02547 2.20013C6.97018 2.20013 5.98709 2.4668 5.07621 3.00013C4.19865 3.51124 3.50438 4.20569 2.99339 5.08346C2.46019 5.99458 2.19359 6.97791 2.19359 8.03346C2.19359 9.08902 2.46019 10.0724 2.99339 10.9835C3.50438 11.8612 4.19865 12.5557 5.07621 13.0668C5.98709 13.6001 6.97018 13.8668 8.02547 13.8668C8.80305 13.8668 9.54731 13.7224 10.2582 13.4335C10.947 13.1446 11.5579 12.739 12.0911 12.2168L12.2078 12.1001Z" fill="#E7E9EA"/>
</svg>
