<svg width="14" height="18" viewBox="0 0 14 18" fill="none" xmlns="http://www.w3.org/2000/svg">
<path d="M0.835 2.115L7 0.75L13.165 2.115C13.335 2.155 13.475 2.245 13.585 2.385C13.695 2.525 13.75 2.68 13.75 2.85V10.335C13.75 11.095 13.5725 11.805 13.2175 12.465C12.8625 13.125 12.37 13.665 11.74 14.085L7 17.25L2.26 14.085C1.63 13.665 1.1375 13.125 0.7825 12.465C0.4275 11.805 0.25 11.095 0.25 10.335V2.85C0.25 2.68 0.305 2.525 0.415 2.385C0.525 2.245 0.665 2.155 0.835 2.115ZM1.75 3.45V10.335C1.75 10.845 1.8675 11.32 2.1025 11.76C2.3375 12.2 2.665 12.56 3.085 12.84L7 15.45L10.915 12.84C11.335 12.56 11.6625 12.2 11.8975 11.76C12.1325 11.32 12.25 10.845 12.25 10.335V3.45L7 2.28L1.75 3.45ZM7 8.25C6.66 8.25 6.3475 8.165 6.0625 7.995C5.7775 7.825 5.55 7.5975 5.38 7.3125C5.21 7.0275 5.125 6.715 5.125 6.375C5.125 6.035 5.21 5.7225 5.38 5.4375C5.55 5.1525 5.7775 4.925 6.0625 4.755C6.3475 4.585 6.66 4.5 7 4.5C7.34 4.5 7.6525 4.585 7.9375 4.755C8.2225 4.925 8.45 5.1525 8.62 5.4375C8.79 5.7225 8.875 6.035 8.875 6.375C8.875 6.715 8.79 7.0275 8.62 7.3125C8.45 7.5975 8.2225 7.825 7.9375 7.995C7.6525 8.165 7.34 8.25 7 8.25ZM3.64 12C3.71 11.44 3.9 10.9325 4.21 10.4775C4.52 10.0225 4.92 9.6625 5.41 9.3975C5.9 9.1325 6.43 9 7 9C7.57 9 8.1 9.1325 8.59 9.3975C9.08 9.6625 9.48 10.0225 9.79 10.4775C10.1 10.9325 10.29 11.44 10.36 12H3.64Z" fill="#E7E9EA"/>
</svg>
