<svg width="12" height="14" viewBox="0 0 12 14" fill="none" xmlns="http://www.w3.org/2000/svg">
<path d="M11.9886 0.667317V2.00065C11.9886 4.06287 11.6244 5.81843 10.8959 7.26732C10.2208 8.61843 9.26585 9.64065 8.03107 10.334C6.85847 11.0007 5.51264 11.334 3.99359 11.334H1.48849C1.38189 11.9384 1.32859 12.6051 1.32859 13.334H-0.00390625C-0.00390625 12.4273 0.0716021 11.5962 0.222619 10.8407C0.0716021 9.97843 -0.00390625 8.80954 -0.00390625 7.33398C-0.00390625 6.42732 0.169319 5.56065 0.515769 4.73398C0.853335 3.94287 1.33081 3.23843 1.94821 2.62065C2.5656 2.00287 3.2696 1.52509 4.06022 1.18732C4.88637 0.840651 5.75249 0.667317 6.65859 0.667317C6.92509 0.667317 7.34261 0.711761 7.91114 0.800651C8.37308 0.871762 8.73729 0.916206 9.00379 0.933984C9.45684 0.96954 9.90101 0.973984 10.3363 0.947317C10.8604 0.902873 11.4112 0.80954 11.9886 0.667317ZM6.65859 2.00065C5.69031 2.00065 4.79309 2.2451 3.96694 2.73398C3.16744 3.2051 2.53229 3.84065 2.06147 4.64065C1.57289 5.46732 1.32859 6.3651 1.32859 7.33398V8.02732C1.73723 7.38732 2.25246 6.79176 2.87429 6.24065C3.46948 5.71621 4.1757 5.22287 4.99297 4.76065L5.65922 5.90732C4.67317 6.47621 3.87811 7.07621 3.27404 7.70732C2.63444 8.37398 2.15919 9.13843 1.84827 10.0007H3.99359C5.33498 10.0007 6.50091 9.70732 7.49141 9.12065C8.4819 8.53398 9.24364 7.67176 9.77664 6.53398C10.3363 5.35176 10.6294 3.9251 10.6561 2.25398C10.2119 2.29843 9.75888 2.31176 9.29694 2.29398C8.87943 2.26732 8.39529 2.21398 7.84452 2.13398C7.45365 2.07176 7.19159 2.03398 7.05834 2.02065C6.92509 2.00732 6.79184 2.00065 6.65859 2.00065Z" fill="#C084FC"/>
</svg>
