<svg width="14" height="14" viewBox="0 0 14 14" fill="none" xmlns="http://www.w3.org/2000/svg">
<path d="M1.23007 10.3329C0.945807 9.84396 0.728165 9.32841 0.577148 8.78619C0.905832 8.6173 1.17011 8.37285 1.36999 8.05285C1.56986 7.73285 1.6698 7.38174 1.6698 6.99952C1.6698 6.6173 1.56986 6.26619 1.36999 5.94619C1.17011 5.62619 0.905832 5.38174 0.577148 5.21285C0.888065 4.10174 1.44327 3.1373 2.24277 2.31952C2.55369 2.52396 2.89792 2.63285 3.27546 2.64619C3.653 2.65952 4.00611 2.57063 4.3348 2.37952C4.66348 2.18841 4.91666 1.92619 5.09432 1.59285C5.27199 1.25952 5.35194 0.91063 5.33417 0.546185C6.44459 0.252852 7.55501 0.252852 8.66542 0.546185C8.64766 0.91063 8.72761 1.25952 8.90527 1.59285C9.08294 1.92619 9.33611 2.18841 9.6648 2.37952C9.99348 2.57063 10.3466 2.65952 10.7241 2.64619C11.1017 2.63285 11.4459 2.52396 11.7568 2.31952C12.1477 2.72841 12.4853 3.1773 12.7695 3.66619C13.0538 4.15507 13.2714 4.67063 13.4224 5.21285C13.0938 5.38174 12.8295 5.62619 12.6296 5.94619C12.4297 6.26619 12.3298 6.6173 12.3298 6.99952C12.3298 7.38174 12.4297 7.73285 12.6296 8.05285C12.8295 8.37285 13.0938 8.6173 13.4224 8.78619C13.1115 9.8973 12.5563 10.8617 11.7568 11.6795C11.4459 11.4751 11.1017 11.3662 10.7241 11.3529C10.3466 11.3395 9.99348 11.4284 9.6648 11.6195C9.33611 11.8106 9.08294 12.0729 8.90527 12.4062C8.72761 12.7395 8.64766 13.0884 8.66542 13.4529C7.55501 13.7462 6.44459 13.7462 5.33417 13.4529C5.35194 13.0884 5.27199 12.7395 5.09432 12.4062C4.91666 12.0729 4.66348 11.8106 4.3348 11.6195C4.00611 11.4284 3.653 11.3395 3.27546 11.3529C2.89792 11.3662 2.55369 11.4751 2.24277 11.6795C1.85191 11.2706 1.51434 10.8217 1.23007 10.3329ZM5.00105 10.4662C5.35638 10.6706 5.66286 10.9329 5.92047 11.2529C6.17809 11.5729 6.37352 11.924 6.50677 12.3062C6.83546 12.3417 7.16414 12.3417 7.49282 12.3062C7.62607 11.924 7.81929 11.5729 8.07246 11.2529C8.32564 10.9329 8.63211 10.6684 8.99189 10.4595C9.35166 10.2506 9.73586 10.1151 10.1445 10.0529C10.5531 9.99063 10.9529 10.004 11.3437 10.0929C11.5392 9.8173 11.708 9.52841 11.8501 9.22619C11.5747 8.92396 11.3637 8.58174 11.2172 8.19952C11.0706 7.8173 10.9973 7.4173 10.9973 6.99952C10.9973 6.58174 11.0706 6.18174 11.2172 5.79952C11.3637 5.4173 11.5747 5.07507 11.8501 4.77285C11.779 4.62174 11.7013 4.47507 11.6169 4.33285C11.5325 4.19063 11.4415 4.04841 11.3437 3.90619C10.9529 3.99507 10.5531 4.00841 10.1445 3.94619C9.73586 3.88396 9.35388 3.74841 8.99855 3.53952C8.64321 3.33063 8.33674 3.06618 8.07912 2.74619C7.82151 2.42619 7.62607 2.07507 7.49282 1.69285C7.16414 1.6573 6.83546 1.6573 6.50677 1.69285C6.37352 2.07507 6.18031 2.42619 5.92714 2.74619C5.67396 3.06618 5.36526 3.33063 5.00105 3.53952C4.63683 3.74841 4.25263 3.88396 3.84844 3.94619C3.44424 4.00841 3.04672 3.99507 2.65585 3.90619C2.46042 4.18174 2.29163 4.47063 2.1495 4.77285C2.42488 5.07507 2.63586 5.4173 2.78244 5.79952C2.92901 6.18174 3.0023 6.58174 3.0023 6.99952C3.0023 7.4173 2.92901 7.8173 2.78244 8.19952C2.63586 8.58174 2.42488 8.92396 2.1495 9.22619C2.22056 9.3773 2.29829 9.52396 2.38269 9.66618C2.46708 9.80841 2.55813 9.95063 2.65585 10.0929C3.04672 10.004 3.44647 9.99063 3.8551 10.0529C4.26373 10.1151 4.64571 10.2529 5.00105 10.4662ZM6.9998 8.99952C6.63558 8.99952 6.30024 8.91063 5.99376 8.73285C5.68729 8.55507 5.44521 8.31285 5.26755 8.00619C5.08988 7.69952 5.00105 7.36396 5.00105 6.99952C5.00105 6.63507 5.08988 6.29952 5.26755 5.99285C5.44521 5.68619 5.68729 5.44396 5.99376 5.26618C6.30024 5.08841 6.63558 4.99952 6.9998 4.99952C7.36401 4.99952 7.69936 5.08841 8.00584 5.26618C8.31231 5.44396 8.55438 5.68619 8.73205 5.99285C8.90971 6.29952 8.99855 6.63507 8.99855 6.99952C8.99855 7.36396 8.90971 7.69952 8.73205 8.00619C8.55438 8.31285 8.31231 8.55507 8.00584 8.73285C7.69936 8.91063 7.36401 8.99952 6.9998 8.99952ZM6.9998 7.66619C7.18635 7.66619 7.34403 7.60174 7.47284 7.47285C7.60164 7.34396 7.66605 7.18619 7.66605 6.99952C7.66605 6.81285 7.60164 6.65507 7.47284 6.52619C7.34403 6.3973 7.18635 6.33285 6.9998 6.33285C6.81325 6.33285 6.65557 6.3973 6.52676 6.52619C6.39795 6.65507 6.33355 6.81285 6.33355 6.99952C6.33355 7.18619 6.39795 7.34396 6.52676 7.47285C6.65557 7.60174 6.81325 7.66619 6.9998 7.66619Z" fill="#71767B"/>
</svg>
