<svg width="19" height="18" viewBox="0 0 19 18" fill="none" xmlns="http://www.w3.org/2000/svg">
<path d="M10.6838 12.765L7.53375 11.055C7.25375 11.345 6.92375 11.575 6.54375 11.745C6.16375 11.915 5.76375 12 5.34375 12C4.80375 12 4.30375 11.865 3.84375 11.595C3.38375 11.325 3.01875 10.96 2.74875 10.5C2.47875 10.04 2.34375 9.54 2.34375 9C2.34375 8.46 2.47875 7.96 2.74875 7.5C3.01875 7.04 3.38375 6.675 3.84375 6.405C4.30375 6.135 4.80375 6 5.34375 6C5.76375 6 6.16375 6.085 6.54375 6.255C6.92375 6.425 7.25375 6.655 7.53375 6.945L10.6838 5.235C10.6237 4.995 10.5938 4.75 10.5938 4.5C10.5938 3.96 10.7288 3.46 10.9987 3C11.2688 2.54 11.6337 2.175 12.0938 1.905C12.5538 1.635 13.0538 1.5 13.5938 1.5C14.1337 1.5 14.6337 1.635 15.0938 1.905C15.5538 2.175 15.9187 2.54 16.1887 3C16.4587 3.46 16.5938 3.96 16.5938 4.5C16.5938 5.04 16.4587 5.54 16.1887 6C15.9187 6.46 15.5538 6.825 15.0938 7.095C14.6337 7.365 14.1337 7.5 13.5938 7.5C13.1737 7.5 12.7737 7.415 12.3938 7.245C12.0138 7.075 11.6838 6.845 11.4037 6.555L8.25375 8.265C8.31375 8.505 8.34375 8.75 8.34375 9C8.34375 9.25 8.31375 9.495 8.25375 9.735L11.4037 11.445C11.6838 11.155 12.0138 10.925 12.3938 10.755C12.7737 10.585 13.1737 10.5 13.5938 10.5C14.1337 10.5 14.6337 10.635 15.0938 10.905C15.5538 11.175 15.9187 11.54 16.1887 12C16.4587 12.46 16.5938 12.96 16.5938 13.5C16.5938 14.04 16.4587 14.54 16.1887 15C15.9187 15.46 15.5538 15.825 15.0938 16.095C14.6337 16.365 14.1337 16.5 13.5938 16.5C13.0538 16.5 12.5538 16.365 12.0938 16.095C11.6337 15.825 11.2688 15.46 10.9987 15C10.7288 14.54 10.5938 14.04 10.5938 13.5C10.5938 13.25 10.6237 13.005 10.6838 12.765ZM5.34375 10.5C5.61375 10.5 5.86375 10.4325 6.09375 10.2975C6.32375 10.1625 6.50625 9.98 6.64125 9.75C6.77625 9.52 6.84375 9.27 6.84375 9C6.84375 8.73 6.77625 8.48 6.64125 8.25C6.50625 8.02 6.32375 7.8375 6.09375 7.7025C5.86375 7.5675 5.61375 7.5 5.34375 7.5C5.07375 7.5 4.82375 7.5675 4.59375 7.7025C4.36375 7.8375 4.18125 8.02 4.04625 8.25C3.91125 8.48 3.84375 8.73 3.84375 9C3.84375 9.27 3.91125 9.52 4.04625 9.75C4.18125 9.98 4.36375 10.1625 4.59375 10.2975C4.82375 10.4325 5.07375 10.5 5.34375 10.5ZM13.5938 6C13.8637 6 14.1137 5.9325 14.3438 5.7975C14.5737 5.6625 14.7562 5.48 14.8912 5.25C15.0262 5.02 15.0938 4.77 15.0938 4.5C15.0938 4.23 15.0262 3.98 14.8912 3.75C14.7562 3.52 14.5737 3.3375 14.3438 3.2025C14.1137 3.0675 13.8637 3 13.5938 3C13.3237 3 13.0737 3.0675 12.8438 3.2025C12.6137 3.3375 12.4312 3.52 12.2962 3.75C12.1613 3.98 12.0938 4.23 12.0938 4.5C12.0938 4.77 12.1613 5.02 12.2962 5.25C12.4312 5.48 12.6137 5.6625 12.8438 5.7975C13.0737 5.9325 13.3237 6 13.5938 6ZM13.5938 15C13.8637 15 14.1137 14.9325 14.3438 14.7975C14.5737 14.6625 14.7562 14.48 14.8912 14.25C15.0262 14.02 15.0938 13.77 15.0938 13.5C15.0938 13.23 15.0262 12.98 14.8912 12.75C14.7562 12.52 14.5737 12.3375 14.3438 12.2025C14.1137 12.0675 13.8637 12 13.5938 12C13.3237 12 13.0737 12.0675 12.8438 12.2025C12.6137 12.3375 12.4312 12.52 12.2962 12.75C12.1613 12.98 12.0938 13.23 12.0938 13.5C12.0938 13.77 12.1613 14.02 12.2962 14.25C12.4312 14.48 12.6137 14.6625 12.8438 14.7975C13.0737 14.9325 13.3237 15 13.5938 15Z" fill="#71767B"/>
</svg>
