<svg width="21" height="20" viewBox="0 0 21 20" fill="none" xmlns="http://www.w3.org/2000/svg">
<path d="M3.21844 6.24967C3.67388 5.34968 4.27929 4.55245 5.03465 3.85801C5.79002 3.16356 6.64536 2.62745 7.60068 2.24968C8.57821 1.86079 9.60018 1.66634 10.6666 1.66634C11.7663 1.66634 12.7938 1.86079 13.7491 2.24968C14.6711 2.61634 15.5043 3.14412 16.2485 3.83301L13.8491 6.23301C13.4159 5.8219 12.9299 5.51079 12.3911 5.29967C11.8524 5.08856 11.2775 4.98301 10.6666 4.98301C9.95564 4.98301 9.27804 5.13301 8.63375 5.43301C8.02279 5.7219 7.48682 6.12745 7.02582 6.64968C6.56483 7.1719 6.22324 7.76079 6.00108 8.41634C5.83445 8.93856 5.75114 9.46634 5.75114 9.99967C5.75114 10.533 5.83445 11.0608 6.00108 11.583C6.22324 12.2386 6.56483 12.8275 7.02582 13.3497C7.48682 13.8719 8.02279 14.2775 8.63375 14.5663C9.27804 14.8663 9.95564 15.0163 10.6666 15.0163C11.7552 15.0163 12.6938 14.7497 13.4825 14.2163C13.9269 13.9275 14.2907 13.5663 14.5739 13.133C14.8572 12.6997 15.0488 12.2219 15.1488 11.6997H10.6666V8.48301H18.5146C18.6146 9.03856 18.6646 9.60523 18.6646 10.183C18.6646 11.4386 18.4507 12.5913 18.0231 13.6413C17.5954 14.6913 16.9817 15.583 16.1819 16.3163C15.482 16.9608 14.6711 17.4552 13.7491 17.7997C12.8049 18.1552 11.7774 18.333 10.6666 18.333C9.60018 18.333 8.57821 18.1386 7.60068 17.7497C6.64536 17.3719 5.79002 16.8358 5.03465 16.1413C4.27929 15.4469 3.67388 14.6497 3.21844 13.7497C2.6297 12.5719 2.33533 11.3219 2.33533 9.99967C2.33533 8.67745 2.6297 7.42745 3.21844 6.24967Z" fill="black"/>
</svg>
