<svg width="16" height="14" viewBox="0 0 16 14" fill="none" xmlns="http://www.w3.org/2000/svg">
<path d="M8.00019 1.20969C8.55699 0.689688 9.19539 0.347188 9.91539 0.182188C10.6354 0.0171881 11.3458 0.034688 12.0466 0.234688C12.7762 0.444688 13.4074 0.827188 13.9402 1.38219C14.473 1.93719 14.8402 2.59469 15.0418 3.35469C15.2338 4.08469 15.2506 4.82219 15.0922 5.56719C14.9338 6.31219 14.605 6.97969 14.1058 7.56969L8.00019 13.9297L1.89459 7.56969C1.39539 6.97969 1.06659 6.31219 0.908189 5.56719C0.749789 4.82219 0.766589 4.08469 0.958589 3.35469C1.16019 2.59469 1.52979 1.93719 2.06739 1.38219C2.60499 0.827188 3.23379 0.444688 3.95379 0.234688C4.65459 0.034688 5.36499 0.0171881 6.08499 0.182188C6.80499 0.347188 7.44339 0.689688 8.00019 1.20969Z" fill="#EF4444"/>
</svg>
