<svg width="20" height="18" viewBox="0 0 20 18" fill="none" xmlns="http://www.w3.org/2000/svg">
<path d="M9.73449 3.2097C10.3145 2.6897 10.9795 2.3472 11.7295 2.1822C12.4795 2.0172 13.2195 2.0347 13.9495 2.2347C14.7095 2.4447 15.367 2.8272 15.922 3.3822C16.477 3.9372 16.8595 4.5947 17.0695 5.3547C17.2695 6.0847 17.287 6.8222 17.122 7.5672C16.957 8.3122 16.6145 8.9797 16.0945 9.5697L9.73449 15.9297L3.37449 9.5697C2.85449 8.9797 2.51199 8.3122 2.34699 7.5672C2.18199 6.8222 2.19949 6.0847 2.39949 5.3547C2.60949 4.5947 2.99449 3.9372 3.55449 3.3822C4.11449 2.8272 4.76949 2.4447 5.51949 2.2347C6.24949 2.0347 6.98949 2.0172 7.73949 2.1822C8.48949 2.3472 9.15449 2.6897 9.73449 3.2097ZM14.8495 4.4397C14.4795 4.0697 14.0495 3.8172 13.5595 3.6822C13.0695 3.5472 12.5745 3.5347 12.0745 3.6447C11.5745 3.7547 11.1295 3.9847 10.7395 4.3347L9.73449 5.2347L8.72949 4.3347C8.34949 3.9847 7.90699 3.7547 7.40199 3.6447C6.89699 3.5347 6.39949 3.5472 5.90949 3.6822C5.41949 3.8172 4.98949 4.0697 4.61949 4.4397C4.24949 4.8097 3.99449 5.2397 3.85449 5.7297C3.71449 6.2197 3.69699 6.7122 3.80199 7.2072C3.90699 7.7022 4.12949 8.1447 4.46949 8.5347L9.73449 13.8147L14.9995 8.5347C15.3395 8.1447 15.562 7.7022 15.667 7.2072C15.772 6.7122 15.7545 6.2197 15.6145 5.7297C15.4745 5.2397 15.2195 4.8097 14.8495 4.4397Z" fill="#EF4444"/>
<path d="M3.5 5.00001L6 3.00001L9.5 4.00001L13 3.00001L15.5 4.00001L16 7.50001L9.5 14.5L3.5 8.00001V5.00001Z" fill="#EF4444"/>
</svg>
