<svg width="16" height="16" viewBox="0 0 16 16" fill="none" xmlns="http://www.w3.org/2000/svg">
<g clip-path="url(#clip0_437_2625)">
<path d="M7.99219 0.199219C8.18103 0.199219 8.35328 0.255101 8.50879 0.366211L15.1738 5.54883C15.3849 5.71549 15.4902 5.93807 15.4902 6.21582V14.9658C15.4902 15.1991 15.4101 15.3965 15.249 15.5576C15.0879 15.7187 14.8904 15.7988 14.6572 15.7988H1.32715C1.09392 15.7988 0.896395 15.7187 0.735352 15.5576C0.574378 15.3965 0.494141 15.199 0.494141 14.9658V6.21582C0.494157 5.93807 0.599505 5.71549 0.810547 5.54883L7.47559 0.366211C7.63108 0.255117 7.80337 0.199235 7.99219 0.199219ZM7.15918 14.1328H8.8252V9.13281H7.15918V14.1328Z" fill="#38E07A"/>
</g>
<defs>
<clipPath id="clip0_437_2625">
<rect width="16" height="16" fill="white"/>
</clipPath>
</defs>
</svg>
