<svg width="16" height="16" viewBox="0 0 16 16" fill="none" xmlns="http://www.w3.org/2000/svg">
<path d="M8.82539 14.1331H13.8241V6.61647L7.99227 2.08314L2.16039 6.61647V14.1331H7.15914V9.13314H8.82539V14.1331ZM15.4904 14.9665C15.4904 15.1998 15.4099 15.397 15.2488 15.5581C15.0877 15.7192 14.8905 15.7998 14.6573 15.7998H1.32727C1.09399 15.7998 0.896818 15.7192 0.735747 15.5581C0.574676 15.397 0.494141 15.1998 0.494141 14.9665V6.21647C0.494141 5.93869 0.59967 5.71647 0.810728 5.5498L7.47573 0.36647C7.63125 0.25536 7.80342 0.199804 7.99227 0.199804C8.18111 0.199804 8.35329 0.25536 8.5088 0.36647L15.1738 5.5498C15.3849 5.71647 15.4904 5.93869 15.4904 6.21647V14.9665Z" fill="#E7E9EA"/>
</svg>
