<svg width="18" height="16" viewBox="0 0 18 16" fill="none" xmlns="http://www.w3.org/2000/svg">
<g clip-path="url(#clip0_437_2656)">
<path d="M16.4902 0.5C16.7234 0.5 16.9211 0.580242 17.082 0.741211C17.2431 0.902248 17.3232 1.09982 17.3232 1.33301V14.667C17.3232 14.9002 17.2431 15.0978 17.082 15.2588C16.9211 15.4197 16.7234 15.5 16.4902 15.5H1.49414C1.26094 15.5 1.06338 15.4198 0.902344 15.2588C0.74134 15.0978 0.6612 14.9002 0.661133 14.667V1.33301C0.661207 1.09982 0.741347 0.902248 0.902344 0.741211C1.06338 0.580148 1.26093 0.500027 1.49414 0.5H16.4902ZM9.04199 7.7168L2.76074 2.16699L2.32715 4.0166L9.05859 9.9502L15.6572 4.0332L15.2402 2.16699L9.04199 7.7168Z" fill="#38E07A"/>
</g>
<defs>
<clipPath id="clip0_437_2656">
<rect width="18" height="16" fill="white"/>
</clipPath>
</defs>
</svg>
