<svg width="14" height="18" viewBox="0 0 14 18" fill="none" xmlns="http://www.w3.org/2000/svg">
<path d="M13.6571 17.75H11.9909V16.0833C11.9909 15.6278 11.8798 15.2083 11.6576 14.825C11.4355 14.4417 11.1328 14.1389 10.7495 13.9167C10.3663 13.6944 9.94697 13.5833 9.49152 13.5833H4.49277C4.03733 13.5833 3.61799 13.6944 3.23475 13.9167C2.85152 14.1389 2.54882 14.4417 2.32665 14.825C2.10448 15.2083 1.9934 15.6278 1.9934 16.0833V17.75H0.327148V16.0833C0.327148 15.3278 0.513213 14.6306 0.885342 13.9917C1.25747 13.3528 1.7629 12.8472 2.40163 12.475C3.04036 12.1028 3.73741 11.9167 4.49277 11.9167H9.49152C10.2469 11.9167 10.9439 12.1028 11.5827 12.475C12.2214 12.8472 12.7268 13.3528 13.099 13.9917C13.4711 14.6306 13.6571 15.3278 13.6571 16.0833V17.75ZM6.99215 10.25C6.09237 10.25 5.25369 10.0222 4.47611 9.56667C3.72074 9.12222 3.12089 8.52222 2.67656 7.76667C2.22112 6.98889 1.9934 6.15 1.9934 5.25C1.9934 4.35 2.22112 3.51111 2.67656 2.73333C3.12089 1.97778 3.72074 1.37778 4.47611 0.933332C5.25369 0.477777 6.09237 0.25 6.99215 0.25C7.89192 0.25 8.7306 0.477777 9.50819 0.933332C10.2636 1.37778 10.8634 1.97778 11.3077 2.73333C11.7632 3.51111 11.9909 4.35 11.9909 5.25C11.9909 6.15 11.7632 6.98889 11.3077 7.76667C10.8634 8.52222 10.2636 9.12222 9.50819 9.56667C8.7306 10.0222 7.89192 10.25 6.99215 10.25ZM6.99215 8.58333C7.592 8.58333 8.14742 8.43333 8.6584 8.13333C9.16938 7.83333 9.57484 7.42778 9.87476 6.91667C10.1747 6.40555 10.3246 5.85 10.3246 5.25C10.3246 4.65 10.1747 4.09444 9.87476 3.58333C9.57484 3.07222 9.16938 2.66667 8.6584 2.36667C8.14742 2.06667 7.592 1.91667 6.99215 1.91667C6.3923 1.91667 5.83688 2.06667 5.3259 2.36667C4.81492 2.66667 4.40946 3.07222 4.10954 3.58333C3.80961 4.09444 3.65965 4.65 3.65965 5.25C3.65965 5.85 3.80961 6.40555 4.10954 6.91667C4.40946 7.42778 4.81492 7.83333 5.3259 8.13333C5.83688 8.43333 6.3923 8.58333 6.99215 8.58333Z" fill="#E7E9EA"/>
</svg>
